# xmcd CD database file
#
# Track frame offsets:
#	150
#	28413
#	55249
#	79421
#	106435
#	123113
#
# Disc length: 1774 seconds
#
# Revision: 0
# Processed by: cddbd v1.5.2PL0 Copyright (c) Steve Scherf et al.
# Submitted via: CDex 1.70beta2
#
DISCID=4d06ec06
DTITLE=とらのあな - 東方詞華集３
DYEAR=2008
DGENRE=東方アレンジ
TTITLE0=少女が見た日本の原風景（Far memory erstwhile Mix）
TTITLE1=信仰は儚き人間の為に（The one to cling Mix）
TTITLE2=御柱の墓場　～ Grave of Being
TTITLE3=神さびた古戦場　～ Suwa Foughten Field
TTITLE4=遠き日々に想いを寄せて…
TTITLE5=NativeFaith arrange - Live -
EXTD=YEAR: 2008
EXTT0=
EXTT1=
EXTT2=
EXTT3=
EXTT4=
EXTT5=
PLAYORDER=
